# xmcd CD database file
#
# Track frame offsets:
#	150
#	29722
#	65232
#	99980
#	134382
#	162957
#	181132
#	212645
#	237372
#	275157
#
# Disc length: 4194 seconds
#
# Revision: 0
# Processed by: cddbd v1.4PL0 Copyright (c) Steve Scherf et al.
# Submitted via: CDex 1.50beta10
#
DISCID=9610600a
DTITLE=Paquito D'Rivera - Big Band Time
DYEAR=2002
DGENRE=Jazz
TTITLE0=To Brenda With Love
TTITLE1=Danza Caracterisca
TTITLE2=Song For Maura
TTITLE3=Basstronaut
TTITLE4=Who's Smokin'?
TTITLE5=Y La Negra Bailaba
TTITLE6=Andalucia
TTITLE7=A Lo Tristano
TTITLE8=Como Un Bolero
TTITLE9=Annette's For Sure
EXTD=YEAR: 2002
EXTT0=
EXTT1=
EXTT2=
EXTT3=
EXTT4=
EXTT5=
EXTT6=
EXTT7=
EXTT8=
EXTT9=
PLAYORDER=
